<?xml version="1.0" encoding="utf-8"?>
<!-- Generator: Adobe Illustrator 21.1.0, SVG Export Plug-In . SVG Version: 6.00 Build 0)  -->
<svg version="1.1" id="Layer_1" xmlns="http://www.w3.org/2000/svg" xmlns:xlink="http://www.w3.org/1999/xlink" x="0px" y="0px"
	 viewBox="0 0 80 80" style="enable-background:new 0 0 80 80;" xml:space="preserve">
<style type="text/css">
	.st0{fill:#FFFFFF;}
</style>
<title  data-reactid="8">logomark - black</title>
<g>
	<path class="st0" d="M19.4,10.1c-0.2-0.1-0.1,0.1-0.3,0.2c-0.1,0.1-0.2,0.1-0.4,0.2c-0.1,0.1-0.3,0-0.4,0.1c-0.1,0.1,0,0.4-0.1,0.5
		c-0.1,0.1-0.4-0.1-0.5,0c-0.1,0.1-0.1,0.3-0.2,0.4c-0.1,0.1-0.2,0.1-0.3,0.2c-0.1,0.1-0.2,0.1-0.3,0.2c-0.1,0.1,0.1,0.4,0,0.5
		c-0.1,0.1-0.4,0-0.5,0.1c-0.1,0.1-0.1,0.3-0.1,0.4c-0.1,0.1-0.1,0.2-0.2,0.4c-0.1,0.1-0.3,0.1-0.3,0.3c-0.1,0.1-0.1,0.3-0.1,0.4
		c-0.1,0.1-0.1,0.3-0.1,0.4c0,0.1-0.2,0.2-0.2,0.3c0,0.1,0,0.3,0,0.4c0,0.1,0,0.3,0,0.4c0,0.1-0.2,0.2-0.2,0.4
		c0,0.1,0.1,0.3,0.1,0.4c0,0.1,0,0.3,0,0.4c0,0.1,0.1,0.3,0.1,0.4c0,0.1-0.2,0.3-0.2,0.4c0,0.1,0.2,0.3,0.2,0.4c0,0.1,0,0.3,0,0.4
		c0,0.1-0.1,0.3-0.1,0.4c0,0.1,0,0.3,0,0.4c0,0.1,0.1,0.2,0.2,0.4c0,0.1,0.1,0.3,0.1,0.4c0,0.1,0,0.3,0.1,0.4c0,0.1,0.2,0.2,0.2,0.3
		c0,0.1-0.2,0.3-0.2,0.4c0,0.1,0.3,0.2,0.3,0.3c0,0.1,0,0.3,0,0.4c0.1,0.2-0.2,0.4,0,0.5c0.2,0,0.1-0.2,0.3-0.4
		c0.1-0.1,0.1-0.3,0.2-0.4c0.1-0.1,0.2-0.1,0.3-0.2c0.1-0.1,0.3-0.1,0.4-0.2c0.1-0.1,0-0.3,0.1-0.4c0.1-0.1,0.3,0,0.4-0.1
		c0.1-0.1,0.2-0.2,0.3-0.2c0.1-0.1,0.2-0.2,0.3-0.3c0.1-0.1,0.1-0.2,0.2-0.3c0.1-0.1,0.1-0.3,0.2-0.4c0.1-0.1,0.3-0.1,0.4-0.2
		c0.1-0.1,0-0.3,0-0.4c0.1-0.1,0.3-0.1,0.4-0.2c0.1-0.1,0.1-0.3,0.1-0.4c0.1-0.1,0.1-0.2,0.2-0.3c0.1-0.1,0.1-0.2,0.1-0.4
		c0.1-0.1,0.2-0.2,0.2-0.3c0-0.1,0.1-0.2,0.1-0.4c0-0.1,0-0.3,0.1-0.4c0-0.1-0.3-0.3-0.2-0.4c0-0.1,0.4-0.2,0.4-0.3
		c0-0.1,0-0.3,0-0.4c0-0.1,0.1-0.3,0.1-0.4c0-0.1-0.1-0.3-0.1-0.4c0-0.1-0.1-0.3-0.1-0.4c0-0.1,0.1-0.3,0-0.4c0-0.1-0.1-0.2-0.2-0.4
		c0-0.1,0.3-0.3,0.3-0.4c0-0.1-0.1-0.2-0.2-0.4c0-0.1-0.1-0.2-0.2-0.4c0-0.1-0.2-0.2-0.3-0.3c0-0.1,0.2-0.3,0.1-0.4
		c0-0.1,0-0.3-0.1-0.4c0-0.1-0.3-0.2-0.3-0.3c0-0.1,0-0.3,0-0.4C19.5,10.1,19.6,10.1,19.4,10.1L19.4,10.1z M12,18
		c-0.2,0-0.2,0.2-0.3,0.4c-0.1,0.1-0.1,0.2-0.2,0.4c-0.1,0.1-0.2,0.2-0.2,0.3c-0.1,0.1-0.1,0.2-0.2,0.3c-0.1,0.1-0.2,0.2-0.3,0.3
		c-0.1,0.1-0.1,0.3-0.1,0.4c-0.1,0.1-0.1,0.3-0.1,0.4c-0.1,0.1-0.2,0.2-0.3,0.3c-0.1,0.1-0.1,0.3-0.1,0.4c0,0.1-0.1,0.3-0.1,0.4
		c0,0.1,0.1,0.3,0,0.4c0,0.1-0.1,0.3-0.1,0.4c0,0.1-0.3,0.2-0.3,0.3c0,0.1,0.1,0.3,0.1,0.4c0,0.1,0.1,0.3,0.1,0.4
		c0,0.1,0.1,0.3,0.1,0.4c0,0.1-0.1,0.3-0.1,0.4c0,0.1,0,0.3,0,0.4c0,0.1,0.1,0.2,0.1,0.4c0,0.1-0.2,0.3-0.1,0.4
		c0,0.1,0.2,0.2,0.2,0.4c0,0.1,0.1,0.3,0.1,0.4c0,0.1,0,0.3,0,0.4c0,0.1,0.4,0.1,0.4,0.3c0,0.1-0.1,0.3,0,0.4c0,0.1,0.2,0.2,0.3,0.3
		c0.1,0.1,0,0.3,0.1,0.4c0.1,0.1,0.1,0.2,0.2,0.3c0.1,0.1,0,0.3,0,0.4c0.1,0.1,0.2,0.2,0.3,0.3c0.1,0.1-0.2,0.4-0.1,0.5
		c0.1,0.1,0.5,0,0.6,0.1c0.1,0.1,0,0.3,0.1,0.4c0.1,0.1,0.1,0.3,0.2,0.4c0.1,0.2,0.1,0.3,0.3,0.3c0.2,0,0.1-0.1,0.2-0.3
		c0.1-0.1,0.2-0.1,0.3-0.3c0.1-0.1,0.1-0.2,0.1-0.4c0.1-0.1,0.2-0.2,0.3-0.3c0.1-0.1-0.2-0.4-0.1-0.5c0.1-0.1,0.3-0.1,0.3-0.3
		c0.1-0.1,0.2-0.2,0.2-0.3c0.1-0.1,0.2-0.2,0.3-0.3c0.1-0.1-0.2-0.4-0.1-0.5c0.1-0.1,0.1-0.2,0.2-0.3c0-0.1,0.1-0.2,0.1-0.4
		c0-0.1,0.4-0.1,0.4-0.3c0-0.1-0.2-0.3-0.1-0.5c0-0.1,0-0.3,0-0.4c0-0.1,0.3-0.2,0.3-0.3c0-0.1,0-0.3,0-0.4c0-0.1,0.1-0.3,0.1-0.4
		c0-0.1,0-0.3,0-0.4c0-0.1,0-0.3,0-0.4c0-0.1-0.1-0.3-0.1-0.4s-0.3-0.2-0.3-0.3c0-0.1,0.1-0.3,0-0.4c0-0.1-0.1-0.2-0.1-0.4
		c0-0.1-0.1-0.2-0.1-0.4c0-0.1,0-0.3-0.1-0.4c0-0.1,0-0.3-0.1-0.4C14.1,21.2,14,21.1,14,21c-0.1-0.1,0-0.3-0.1-0.4
		c-0.1-0.1-0.1-0.2-0.2-0.4c-0.1-0.1-0.4-0.1-0.4-0.2c-0.1-0.1,0-0.3,0-0.4c-0.1-0.1-0.2-0.2-0.3-0.3c-0.1-0.1,0-0.4,0-0.5
		c-0.1-0.1-0.2-0.2-0.3-0.3c-0.1-0.1-0.1-0.2-0.2-0.3C12.2,18.1,12.2,18,12,18z M7.4,28c-0.2,0.1-0.1,0.2-0.2,0.4
		c0,0.1,0.1,0.3,0,0.4c0,0.1-0.1,0.2-0.2,0.4c0,0.1-0.1,0.2-0.1,0.4c0,0.1-0.2,0.2-0.2,0.4c0,0.1,0,0.3,0,0.4c0,0.1,0,0.3,0,0.4
		c0,0.1,0,0.3,0,0.4c0,0.1-0.1,0.3-0.1,0.4c0,0.1,0.1,0.3,0.1,0.4c0,0.1,0.1,0.3,0.1,0.4c0,0.1-0.3,0.3-0.2,0.4
		c0,0.1,0.2,0.2,0.2,0.4c0,0.1-0.1,0.3-0.1,0.4c0,0.1,0.3,0.2,0.4,0.3c0,0.1-0.1,0.3,0,0.4c0,0.1,0.1,0.2,0.2,0.4
		c0.1,0.1,0.1,0.2,0.2,0.4c0.1,0.1,0.2,0.2,0.3,0.3c0.1,0.1-0.1,0.4,0,0.5c0.1,0.1,0.3,0.2,0.3,0.3c0.1,0.1,0.1,0.2,0.2,0.4
		c0.1,0.1,0.1,0.2,0.2,0.4c0.1,0.1,0.2,0.2,0.3,0.3c0.1,0.1,0.2,0.2,0.3,0.3c0.1,0.1,0.1,0.3,0.2,0.4c0.1,0.1,0.2,0.2,0.3,0.3
		C9.3,38,9.5,38,9.5,38.1c0.1,0.1,0.2,0.2,0.2,0.3c0.1,0.1,0.1,0.3,0.2,0.3c0.1,0.1,0.2,0.2,0.3,0.2c0.1,0.1,0.2,0.1,0.3,0.2
		c0.1,0.1,0.1,0.3,0.2,0.4c0.1,0.1,0.4,0,0.4,0c0.2,0.1,0.1,0.3,0.2,0.3c0.2-0.1-0.1-0.1,0-0.3c0-0.1,0.2-0.2,0.2-0.3
		c0-0.1,0-0.3,0-0.4c0-0.1,0.2-0.2,0.2-0.3c0-0.1,0.1-0.2,0.2-0.4c0-0.1-0.1-0.3-0.1-0.4c0-0.1,0.1-0.2,0.1-0.4
		c0-0.1,0.1-0.2,0.1-0.4c0-0.1,0-0.3,0-0.4c0-0.1,0.2-0.2,0.2-0.4c0-0.1,0-0.3,0-0.4c0-0.1-0.2-0.3-0.2-0.4c0-0.1,0-0.3,0-0.4
		c0-0.1,0-0.3,0-0.4c0-0.1-0.2-0.2-0.2-0.4c0-0.1,0.1-0.3,0.1-0.4c0-0.1-0.1-0.2-0.1-0.4c0-0.1,0.1-0.3,0.1-0.4
		c0-0.1-0.2-0.2-0.2-0.3c-0.1-0.1,0-0.3,0-0.4c-0.1-0.1-0.1-0.3-0.1-0.4c-0.1-0.1-0.4-0.1-0.4-0.2c-0.1-0.1,0-0.3-0.1-0.4
		c-0.1-0.1-0.2-0.1-0.3-0.2c-0.1-0.1-0.1-0.2-0.2-0.3c-0.1-0.1-0.1-0.3-0.1-0.4c-0.1-0.1-0.2-0.2-0.3-0.2c-0.1-0.1-0.3,0-0.4-0.1
		c-0.1-0.1-0.1-0.3-0.2-0.4c-0.1-0.1-0.1-0.2-0.2-0.3c-0.1-0.1-0.3,0-0.4-0.1c-0.1-0.1-0.1-0.2-0.2-0.3c-0.1-0.1-0.2-0.2-0.3-0.3
		c-0.1-0.1-0.1-0.3-0.2-0.3c-0.1-0.1-0.3,0-0.4-0.1C7.5,28.2,7.6,28,7.4,28z M6.1,39.1c-0.2,0.1-0.1,0-0.1,0.2c0,0.1,0,0.2,0,0.4
		C6.1,39.9,6,40,6,40.1c0,0.1,0,0.3,0,0.4c0,0.1,0,0.3,0,0.4c0,0.1,0.1,0.2,0.1,0.4c0,0.1,0,0.3,0,0.4c0,0.1,0.2,0.2,0.2,0.4
		c0,0.1-0.2,0.3-0.1,0.4c0,0.1,0.1,0.2,0.1,0.4c0,0.1,0.3,0.2,0.3,0.3c0,0.1,0,0.3,0.1,0.4c0.1,0.1,0.2,0.2,0.2,0.3
		C7,44,6.9,44.2,7,44.4c0.1,0.1,0.1,0.2,0.2,0.4c0.1,0.1,0.2,0.2,0.3,0.3c0.1,0.1,0,0.3,0.1,0.4c0.1,0.1,0.3,0.1,0.4,0.2
		c0.1,0.1,0.1,0.2,0.2,0.3C8.3,46,8.5,46,8.6,46.1c0.1,0.1,0.1,0.3,0.2,0.4c0.1,0.1,0.2,0.1,0.3,0.2c0.1,0.1,0.3,0,0.4,0.1
		c0.1,0.1,0,0.4,0.1,0.5c0.1,0.1,0.2,0.2,0.3,0.3c0.1,0.1,0.3,0,0.4,0.1c0.1,0.1,0.2,0.2,0.3,0.2c0.1,0.1,0.2,0.2,0.3,0.2
		c0.1,0.1,0.3,0.1,0.4,0.2c0.1,0.1,0.2,0.1,0.3,0.2c0.1,0.1,0.3,0,0.4,0.1c0.1,0.1,0.2,0.2,0.3,0.2c0.1,0.1,0.2,0.2,0.3,0.2
		c0.1,0.1,0.3,0,0.4,0.1c0.2,0.1,0.3,0.3,0.4,0.2c0.1-0.1,0-0.2,0-0.4c0-0.1,0.1-0.2,0.1-0.4c0-0.1-0.2-0.2-0.3-0.4
		c0-0.1,0-0.3,0-0.4c0-0.1,0.1-0.3,0.1-0.4c0-0.1-0.1-0.2-0.2-0.4c0-0.1,0-0.3,0-0.4c0-0.1-0.1-0.2-0.1-0.4c0-0.1,0-0.3,0-0.4
		S13,45.4,13,45.3c0-0.1,0-0.3-0.1-0.4c0-0.1-0.1-0.2-0.1-0.4c0-0.1,0-0.3-0.1-0.4c0-0.1,0-0.3-0.1-0.4c0-0.1-0.1-0.2-0.2-0.3
		c-0.1-0.1-0.3-0.2-0.3-0.3c-0.1-0.1-0.1-0.2-0.2-0.3c-0.1-0.1,0-0.3-0.1-0.4c-0.1-0.1-0.2-0.2-0.2-0.3c-0.1-0.1-0.3-0.1-0.3-0.2
		c-0.1-0.1-0.2-0.1-0.3-0.2c-0.1-0.1-0.1-0.3-0.2-0.4c-0.1-0.1-0.3-0.1-0.4-0.1c-0.1-0.1-0.3-0.1-0.4-0.1c-0.1-0.1,0-0.4-0.1-0.5
		c-0.1-0.1-0.3-0.1-0.4-0.2c-0.1-0.1-0.3,0-0.4-0.1C9.1,40.2,9.1,40,9,39.9c-0.1-0.1-0.3,0-0.4,0c-0.1-0.1-0.2-0.2-0.3-0.3
		c-0.1-0.1-0.3,0-0.4-0.1c-0.1-0.1-0.3,0-0.4,0c-0.1,0-0.2-0.1-0.3-0.2c-0.1,0-0.2-0.2-0.3-0.2c-0.1,0-0.3,0.1-0.4,0
		C6.1,39.1,6.3,39,6.1,39.1L6.1,39.1z M8.1,49.8c-0.1,0.2,0,0.1,0.1,0.3c0,0.1,0,0.2,0.1,0.4c0,0.1,0,0.3,0.1,0.4
		c0,0.1,0.2,0.2,0.3,0.3c0,0.1,0,0.3,0.1,0.4c0.1,0.1-0.1,0.3,0,0.5C8.7,52.1,9,52.2,9,52.3c0.1,0.1,0.1,0.2,0.2,0.3
		c0.1,0.1,0.1,0.3,0.1,0.4c0.1,0.1,0.2,0.2,0.3,0.3c0.1,0.1,0,0.3,0.1,0.4c0.1,0.1,0.2,0.2,0.3,0.3c0.1,0.1,0.2,0.2,0.3,0.3
		c0.1,0.1,0.1,0.3,0.2,0.4c0.1,0.1,0.2,0.2,0.3,0.3c0.1,0.1,0.3,0.1,0.4,0.1c0.1,0.1,0.3,0,0.4,0.1c0.1,0.1,0.2,0.2,0.3,0.3
		c0.1,0.1,0.2,0.1,0.3,0.2c0.1,0.1,0.2,0.2,0.3,0.2c0.1,0.1,0.3,0,0.4,0.1c0.1,0.1,0.2,0.2,0.3,0.2c0.1,0,0.2,0.1,0.4,0.1
		c0.1,0,0.3,0,0.4,0c0.1,0,0.2,0.2,0.3,0.3c0.1,0,0.3,0,0.4,0.1c0.1,0,0.3-0.2,0.4-0.1c0.1,0,0.2,0.2,0.3,0.3c0.1,0,0.3,0,0.4,0
		c0.1,0,0.3,0.1,0.4,0.1c0.1,0,0.3,0.1,0.4,0.1c0.1,0,0.3-0.1,0.4-0.1c0.1,0,0.3,0,0.4,0c0.1,0,0.3,0,0.4,0c0.2,0,0.2,0.2,0.3,0.1
		c0.1-0.2,0.1-0.1,0-0.3c0-0.1-0.2-0.2-0.2-0.3c0-0.1-0.1-0.2-0.2-0.3c0-0.1,0.1-0.3,0-0.4c0-0.1-0.2-0.2-0.3-0.3
		c-0.1-0.1-0.1-0.2-0.2-0.3c-0.1-0.1,0-0.3-0.1-0.4c-0.1-0.1-0.3-0.1-0.3-0.2c-0.1-0.1,0-0.3,0-0.4c-0.1-0.1-0.1-0.2-0.2-0.3
		c-0.1-0.1-0.3-0.1-0.3-0.2c-0.1-0.1-0.1-0.3-0.1-0.4c-0.1-0.1-0.1-0.2-0.2-0.3c-0.1-0.1-0.1-0.2-0.2-0.3c-0.1-0.1-0.1-0.2-0.2-0.3
		c-0.1-0.1-0.1-0.2-0.2-0.3c-0.1-0.1-0.3-0.1-0.4-0.2c-0.1-0.1-0.1-0.3-0.2-0.3c-0.1-0.1-0.3,0-0.4-0.1c-0.1-0.1-0.1-0.3-0.3-0.3
		c-0.1-0.1-0.2-0.2-0.3-0.2c-0.1-0.1-0.3-0.1-0.4-0.1c-0.1,0-0.2-0.2-0.3-0.2c-0.1,0-0.3,0-0.4-0.1c-0.1,0-0.2-0.2-0.4-0.2
		c-0.1,0-0.3,0.1-0.4,0c-0.1,0-0.3,0-0.4-0.1c-0.1,0-0.2-0.3-0.3-0.3c-0.1,0-0.3,0.1-0.4,0.1c-0.1,0-0.3-0.1-0.4-0.1
		c-0.1,0-0.3,0.1-0.4,0c-0.1,0-0.3,0-0.4,0c-0.1,0-0.3-0.2-0.4-0.2c-0.1,0-0.3,0-0.4,0c-0.1,0-0.3,0.2-0.4,0.2
		C8.1,49.8,8.2,49.6,8.1,49.8L8.1,49.8z M13.2,59.4c-0.1,0.2,0,0.1,0.2,0.3c0.1,0.1,0,0.3,0.1,0.4c0.1,0.1,0.4,0,0.5,0.1
		c0.1,0.1,0.1,0.2,0.2,0.3c0.1,0.1-0.1,0.4,0,0.5c0.1,0.1,0.3,0.1,0.4,0.2c0.1,0.1,0.1,0.2,0.2,0.3c0.1,0.1,0.4,0,0.5,0.1
		c0.1,0.1,0.1,0.3,0.2,0.4c0.1,0.1,0.2,0.2,0.3,0.3c0.1,0.1,0.2,0.1,0.3,0.2c0.1,0.1,0.2,0.2,0.3,0.2c0.1,0.1,0.3,0.1,0.4,0.1
		c0.1,0.1,0.2,0.2,0.3,0.2c0.1,0.1,0.2,0.1,0.4,0.2c0.1,0,0.3,0.1,0.4,0.1c0.1,0,0.3,0.1,0.4,0.1c0.1,0,0.2,0.1,0.4,0.1
		c0.1,0,0.3-0.1,0.4-0.1c0.1,0,0.2,0.2,0.4,0.2c0.1,0,0.3,0.1,0.4,0.1c0.1,0,0.3,0,0.4,0c0.1,0,0.3,0.1,0.4,0.1
		c0.1,0,0.3-0.2,0.4-0.2c0.1,0,0.3-0.1,0.4-0.1c0.1,0,0.3,0.1,0.4,0.1c0.1,0,0.3,0,0.4,0c0.1,0,0.3,0.1,0.4,0c0.1,0,0.3,0,0.4,0
		c0.1,0,0.2-0.3,0.4-0.3c0.1,0,0.3,0,0.4-0.1c0.1,0,0.2-0.1,0.4-0.1c0.1,0,0.4,0.3,0.5,0.3c0.1,0,0.2-0.3,0.3-0.3
		c0.2-0.1,0.4,0.1,0.4-0.1c0-0.2-0.2-0.1-0.4-0.2c-0.1-0.1,0-0.3-0.1-0.4c-0.1-0.1-0.2-0.1-0.3-0.2c-0.1-0.1-0.2-0.2-0.3-0.3
		c-0.1-0.1-0.1-0.3-0.2-0.4c-0.1-0.1-0.1-0.2-0.2-0.3c-0.1-0.1-0.2-0.2-0.3-0.3c-0.1-0.1-0.4,0.1-0.5,0c-0.1-0.1-0.1-0.2-0.2-0.3
		c-0.1-0.1-0.2-0.2-0.2-0.3c-0.1-0.1,0-0.4-0.1-0.4s-0.3-0.1-0.4-0.1c-0.1-0.1-0.3-0.1-0.4-0.1c-0.1-0.1-0.2-0.2-0.3-0.3
		c-0.1-0.1-0.2-0.2-0.3-0.2c-0.1-0.1-0.2-0.1-0.3-0.2c-0.1-0.1-0.3-0.1-0.4-0.1c-0.1,0-0.2-0.2-0.3-0.2c-0.1,0-0.2-0.1-0.4-0.2
		s-0.3,0-0.4,0c-0.1,0-0.3,0.2-0.4,0.2c-0.1,0-0.3,0-0.4,0c-0.1,0-0.2-0.3-0.4-0.4c-0.1,0-0.3,0-0.4,0c-0.1,0-0.3,0.1-0.4,0.1
		c-0.1,0-0.3,0-0.4,0c-0.1,0-0.2,0.2-0.4,0.2c-0.1,0-0.3-0.1-0.4-0.1c-0.1,0-0.3,0-0.4,0c-0.1,0-0.2,0.2-0.4,0.2
		c-0.1,0-0.3,0.1-0.4,0.1c-0.1,0-0.3,0.1-0.4,0.1c-0.1,0-0.3,0.1-0.4,0.1c-0.1,0-0.3,0-0.4,0.1c-0.1,0-0.3-0.1-0.4,0
		C13.3,59.3,13.3,59.2,13.2,59.4z M20.9,67.1c0,0.2,0.4-0.1,0.6,0.1c0.1,0.1,0.1,0.3,0.2,0.4c0.1,0.1,0.1,0.3,0.2,0.3
		c0.1,0.1,0.3,0.1,0.4,0.2c0.1,0.1,0.3,0,0.4,0.1c0.1,0.1,0.2,0.1,0.3,0.2c0.1,0.1,0.1,0.3,0.2,0.4c0.1,0.1,0.3,0,0.4,0.1
		c0.1,0.1,0.3,0.1,0.4,0.1c0.1,0.1,0.2,0.1,0.4,0.2c0.1,0,0.3,0,0.4,0.1c0.1,0,0.2,0.4,0.3,0.4c0.1,0,0.3,0,0.4,0c0.1,0,0.3,0,0.4,0
		c0.1,0,0.3-0.2,0.4-0.2c0.1,0,0.3,0.2,0.4,0.2c0.1,0,0.3-0.1,0.4-0.1c0.1,0,0.3,0,0.4,0c0.1,0,0.3,0.1,0.4,0.1c0.1,0,0.3,0,0.4,0
		c0.1,0,0.3,0,0.4,0c0.1,0,0.2-0.4,0.3-0.4c0.1,0,0.3,0,0.4-0.1c0.1,0,0.3,0,0.4,0c0.1,0,0.2-0.1,0.4-0.1c0.1,0,0.2-0.1,0.4-0.2
		c0.1,0,0.2-0.1,0.4-0.2c0.1,0,0.3,0.1,0.4,0c0.1-0.1,0.2-0.3,0.3-0.4c0.1-0.1,0.3,0,0.4,0c0.1-0.1,0.2-0.2,0.3-0.2
		c0.1-0.1,0.1-0.3,0.2-0.4c0.1-0.1,0.3,0,0.4-0.1c0.1-0.1,0.3-0.1,0.4-0.1c0.2-0.1,0.4-0.1,0.4-0.3c0-0.2-0.3,0-0.5-0.2
		C33.2,67,33.1,67,33,66.9c-0.1-0.1-0.2-0.1-0.3-0.2c-0.1-0.1,0-0.4-0.2-0.5c-0.1-0.1-0.4,0.2-0.5,0.1c-0.1-0.1-0.2-0.1-0.3-0.2
		c-0.1-0.1-0.1-0.3-0.3-0.3c-0.1-0.1-0.1-0.3-0.2-0.4c-0.1-0.1-0.3,0.1-0.4,0s-0.2-0.1-0.3-0.2s-0.2-0.1-0.3-0.2
		c-0.1-0.1-0.3,0-0.4-0.1c-0.1,0-0.2-0.3-0.3-0.3c-0.1,0-0.3,0.1-0.4,0.1c-0.1,0-0.2-0.3-0.3-0.3c-0.1,0-0.3,0.3-0.4,0.2
		c-0.1,0-0.2-0.2-0.4-0.2c-0.1,0-0.3,0.1-0.4,0.1c-0.1,0-0.3-0.1-0.4-0.1c-0.1,0-0.2,0.1-0.4,0.2c-0.1,0-0.3,0-0.4,0
		c-0.1,0-0.3,0-0.4,0c-0.1,0-0.2,0.1-0.4,0.1c-0.1,0-0.2,0.1-0.4,0.1c-0.1,0-0.3,0-0.4,0c-0.1,0-0.2,0.1-0.4,0.1
		c-0.1,0-0.3,0.1-0.4,0.1c-0.1,0.1-0.2,0.3-0.3,0.3c-0.1,0.1-0.3,0-0.4,0.1c-0.1,0.1-0.2,0.1-0.3,0.2c-0.1,0.1-0.2,0.2-0.3,0.2
		c-0.1,0.1-0.1,0.3-0.2,0.4c-0.1,0.1-0.3,0-0.4,0c-0.1,0.1-0.3,0-0.4,0.1c-0.1,0.1-0.3,0-0.4,0.1C21,66.8,20.9,66.9,20.9,67.1z
		 M61.2,10.4c0,0.1,0,0.3,0,0.4c0,0.1-0.2,0.2-0.2,0.3c0,0.1-0.1,0.2-0.2,0.4c0,0.1,0.2,0.3,0.2,0.5c0,0.1-0.2,0.2-0.2,0.3
		c0,0.1-0.3,0.2-0.3,0.3c0,0.1,0,0.3,0,0.4c0,0.1-0.1,0.2-0.1,0.4c0,0.1,0,0.3,0,0.4c0,0.1,0,0.3,0,0.4c0,0.1,0,0.3,0,0.4
		c0,0.1,0.1,0.3,0.1,0.4c0,0.1,0,0.3,0,0.4c0,0.1-0.2,0.3-0.2,0.4c0,0.1,0,0.3,0,0.4c0,0.1,0.2,0.2,0.3,0.3c0,0.1,0.1,0.2,0.2,0.4
		c0,0.1-0.1,0.3,0,0.4c0,0.1,0.1,0.2,0.2,0.3c0.1,0.1,0,0.3,0,0.4c0.1,0.1,0.3,0.1,0.4,0.2c0.1,0.1,0.2,0.2,0.3,0.3
		c0.1,0.1,0,0.3,0.1,0.4c0.1,0.1,0.2,0.2,0.3,0.3c0.1,0.1,0.1,0.2,0.2,0.3c0.1,0.1,0.1,0.3,0.1,0.4c0.1,0.1,0.3,0,0.4,0.1
		c0.1,0.1,0.1,0.3,0.1,0.4c0.1,0.1,0.3,0,0.4,0.1c0.1,0.1-0.1,0.5,0,0.6c0.1,0.1,0.2,0.2,0.3,0.2c0.1,0.1,0.3,0.1,0.4,0.2
		c0.1,0.1,0.3,0.1,0.4,0.1c0.1,0.1,0.2,0.2,0.2,0.3c0.2,0.2,0.1,0.4,0.3,0.3c0.2,0,0.3-0.1,0.3-0.4c0-0.1-0.2-0.3-0.1-0.4
		c0-0.1-0.1-0.3,0-0.4c0-0.1,0.1-0.2,0.2-0.4c0-0.1,0.2-0.2,0.2-0.4c0-0.1,0.1-0.2,0.1-0.4c0-0.1,0.1-0.2,0.1-0.4c0-0.1,0-0.3,0-0.4
		c0-0.1-0.1-0.3,0-0.4c0-0.1,0.1-0.3,0.1-0.4c0-0.1-0.2-0.3-0.2-0.4c0-0.1,0.3-0.3,0.3-0.4c0-0.1-0.2-0.3-0.2-0.4
		c0-0.1,0.1-0.3,0.1-0.4c0-0.1-0.1-0.2-0.1-0.4c0-0.1-0.1-0.2-0.1-0.4c0-0.1,0-0.3,0-0.4c0-0.1-0.1-0.2-0.1-0.4
		c0-0.1,0.1-0.3,0.1-0.4c0-0.1,0-0.3,0-0.4c0-0.1-0.3-0.2-0.3-0.3c-0.1-0.1,0-0.3-0.1-0.4c-0.1-0.1-0.1-0.3-0.2-0.4
		c-0.1-0.1-0.1-0.3-0.2-0.4c-0.1-0.1-0.3-0.1-0.4-0.2c-0.1-0.1-0.2-0.2-0.3-0.3c-0.1-0.1-0.2-0.2-0.2-0.3c-0.1-0.1,0-0.3-0.1-0.4
		c-0.1-0.1-0.3-0.1-0.4-0.2c-0.1-0.1-0.1-0.3-0.2-0.4c-0.1-0.1-0.4,0.1-0.5,0c-0.1-0.1-0.1-0.3-0.2-0.4c-0.1-0.1-0.3-0.1-0.4-0.2
		c-0.1-0.1-0.3-0.1-0.4-0.1c-0.2-0.1-0.1-0.4-0.3-0.3C61.2,10.1,61.3,10.1,61.2,10.4L61.2,10.4z M68.5,18.3
		c-0.1,0.1-0.1,0.2-0.2,0.3c-0.1,0.1-0.1,0.2-0.2,0.3c-0.1,0.1-0.2,0.2-0.3,0.3c-0.1,0.1,0,0.3-0.1,0.4c-0.1,0.1-0.3,0.1-0.4,0.2
		c-0.1,0.1-0.1,0.2-0.2,0.3c-0.1,0.1,0.2,0.4,0.1,0.5c-0.1,0.1-0.2,0.2-0.3,0.3c-0.1,0.1,0.1,0.3,0,0.4c-0.1,0.1-0.2,0.2-0.3,0.3
		c0,0.1-0.3,0.2-0.3,0.3c0,0.1,0.1,0.3,0.1,0.4c0,0.1-0.3,0.2-0.4,0.3c0,0.1,0.3,0.3,0.3,0.5c0,0.1-0.2,0.2-0.2,0.4
		c0,0.1-0.1,0.3-0.1,0.4c0,0.1,0,0.3,0,0.4c0,0.1-0.1,0.3-0.1,0.4c0,0.1,0,0.3,0.1,0.4c0,0.1,0.2,0.2,0.2,0.4c0,0.1,0,0.3,0,0.4
		c0,0.1,0.3,0.2,0.3,0.3c0,0.1-0.1,0.3-0.1,0.4c0,0.1,0.1,0.2,0.1,0.4c0,0.1,0,0.3,0.1,0.4c0,0.1,0.1,0.2,0.2,0.3
		c0.1,0.1,0.2,0.2,0.2,0.3c0.1,0.1,0.2,0.2,0.3,0.3c0.1,0.1,0,0.3,0,0.4c0.1,0.1,0.1,0.2,0.1,0.4c0.1,0.1,0.2,0.2,0.3,0.3
		c0.1,0.1,0,0.3,0,0.4c0.1,0.1,0.2,0.2,0.3,0.3c0.1,0.1,0.2,0.2,0.2,0.3c0.1,0.2,0,0.4,0.2,0.4c0.2,0,0-0.2,0.2-0.4
		c0.1-0.1,0.1-0.2,0.2-0.3c0.1-0.1,0.3-0.1,0.4-0.2c0.1-0.1,0.1-0.2,0.2-0.3c0.1-0.1,0.1-0.2,0.2-0.3c0.1-0.1,0-0.3,0-0.4
		c0.1-0.1,0-0.3,0.1-0.4c0.1-0.1,0.3-0.1,0.4-0.3c0.1-0.1,0.1-0.2,0.1-0.4c0-0.1,0.2-0.2,0.2-0.3c0-0.1-0.1-0.3-0.1-0.4
		c0-0.1,0.4-0.2,0.4-0.3c0-0.1,0-0.3,0-0.4c0-0.1-0.1-0.3-0.1-0.4c0-0.1,0.2-0.2,0.2-0.4c0-0.1-0.2-0.3-0.2-0.4
		c0-0.1,0.1-0.2,0.2-0.4c0-0.1,0.3-0.2,0.3-0.3c0-0.1-0.1-0.3,0-0.4c0-0.1,0-0.3,0-0.4c0-0.1,0-0.3,0-0.4c0-0.1-0.1-0.3-0.1-0.4
		c0-0.1,0-0.3,0-0.4s-0.2-0.2-0.2-0.4c0-0.1,0.1-0.3,0.1-0.4c0-0.1-0.2-0.2-0.3-0.3c0-0.1,0.2-0.4,0.1-0.5c-0.1-0.1-0.6,0-0.6-0.2
		c-0.1-0.1,0-0.3-0.1-0.4c-0.1-0.1,0-0.3,0-0.4c-0.1-0.1-0.2-0.2-0.2-0.3c-0.1-0.1-0.3-0.1-0.4-0.2c-0.1-0.1,0-0.3-0.1-0.4
		c-0.1-0.1-0.3-0.2-0.3-0.2c-0.2-0.2,0.1-0.4-0.2-0.4C68.7,18.1,68.6,18.1,68.5,18.3L68.5,18.3z M73.3,28.1c0,0.1,0,0.1-0.1,0.2
		c-0.1,0.1-0.2,0.2-0.3,0.3c-0.1,0.1-0.3,0-0.5,0c-0.1,0.1-0.1,0.3-0.2,0.4c-0.1,0.1-0.2,0.1-0.3,0.2c-0.1,0.1-0.1,0.2-0.2,0.3
		c-0.1,0.1-0.2,0.2-0.3,0.3c-0.1,0.1-0.2,0.1-0.3,0.2c-0.1,0.1-0.2,0.1-0.3,0.2c-0.1,0.1-0.2,0.2-0.2,0.3s-0.2,0.2-0.2,0.3
		c-0.1,0.1-0.1,0.3-0.2,0.4c-0.1,0.1-0.1,0.2-0.2,0.4c-0.1,0.1-0.3,0.1-0.3,0.2c-0.1,0.1-0.1,0.2-0.2,0.3c-0.1,0.1,0,0.3-0.1,0.4
		c-0.1,0.1-0.2,0.2-0.2,0.3c-0.1,0.1-0.2,0.2-0.2,0.3c0,0.1,0,0.3-0.1,0.4c0,0.1-0.1,0.2-0.1,0.4c0,0.1-0.1,0.2-0.1,0.4
		c0,0.1-0.1,0.2-0.1,0.4c0,0.1,0.3,0.3,0.3,0.4c0,0.1-0.1,0.2,0,0.4c0,0.1-0.1,0.3-0.1,0.4c0,0.1,0.1,0.2,0.1,0.4
		c0,0.1-0.1,0.3-0.1,0.4s0,0.3,0,0.4c0,0.1,0.1,0.2,0.1,0.4c0,0.1,0.1,0.2,0.1,0.4c0,0.1-0.1,0.3-0.1,0.4c0,0.1,0.3,0.2,0.3,0.3
		c0,0.1,0,0.3,0,0.4c0,0.1,0,0.3,0,0.4c0,0.1,0,0.3,0,0.4c0.1,0.2,0.1,0.2,0.2,0.3c0.2,0.1,0.1,0,0.3-0.1c0.1-0.1,0.2-0.2,0.3-0.2
		c0.1-0.1,0.2-0.1,0.3-0.2c0.1-0.1,0.2-0.1,0.3-0.2c0.1-0.1,0.2-0.2,0.3-0.3c0.1-0.1,0.1-0.2,0.2-0.3c0.1-0.1,0.2-0.1,0.3-0.2
		c0.1-0.1,0.2-0.2,0.3-0.3c0.1-0.1,0-0.3,0.1-0.4c0.1-0.1,0.1-0.2,0.2-0.3c0.1-0.1,0.3-0.1,0.4-0.2c0.1-0.1,0.2-0.2,0.2-0.3
		c0.1-0.1,0.1-0.3,0.1-0.4c0.1-0.1,0.1-0.3,0.1-0.4c0.1-0.1,0.3-0.1,0.4-0.2c0.1-0.1-0.1-0.3,0-0.4c0.1-0.1,0.1-0.2,0.2-0.4
		c0.1-0.1,0.2-0.2,0.2-0.3c0.1-0.1,0.2-0.2,0.3-0.3c0-0.1-0.1-0.3-0.1-0.4c0-0.1,0.1-0.2,0.2-0.4c0-0.1,0.1-0.3,0.1-0.4
		c0-0.1,0-0.3,0-0.4c0-0.1,0-0.3,0-0.4c0-0.1,0.1-0.3,0.1-0.4c0-0.1,0.3-0.3,0.3-0.4c0-0.1-0.1-0.3-0.1-0.4c0-0.1-0.1-0.3-0.2-0.4
		c0-0.1-0.2-0.2-0.2-0.4c0-0.1,0.1-0.3,0-0.4c0-0.1-0.1-0.3-0.1-0.4c0-0.1-0.1-0.3-0.1-0.4c0-0.1-0.1-0.3-0.1-0.4
		c0-0.1-0.1-0.3-0.2-0.4c-0.1-0.2,0.2-0.5,0-0.6C73.4,27.9,73.3,28,73.3,28.1L73.3,28.1z M74.5,39.1c-0.1,0-0.3-0.1-0.4,0
		c-0.1,0-0.1,0.4-0.3,0.4c-0.1,0-0.3,0-0.4,0.1c-0.1,0-0.2,0.2-0.3,0.2c-0.1,0-0.3-0.1-0.4,0c-0.1,0.1-0.1,0.3-0.3,0.4
		c-0.1,0.1-0.3,0-0.4,0c-0.1,0.1-0.2,0.1-0.4,0.2c-0.1,0.1-0.2,0.2-0.3,0.2c-0.1,0.1-0.3,0.1-0.4,0.2c-0.1,0.1-0.2,0.1-0.3,0.2
		c-0.1,0.1-0.2,0.1-0.3,0.2c-0.1,0.1-0.2,0.2-0.3,0.3c-0.1,0.1-0.2,0.2-0.3,0.3c-0.1,0.1-0.2,0.2-0.3,0.3c-0.1,0.1-0.1,0.3-0.2,0.4
		S69,42.4,69,42.5c-0.1,0.1-0.1,0.2-0.2,0.4c-0.1,0.1-0.1,0.2-0.1,0.4c-0.1,0.1-0.3,0.1-0.3,0.2c-0.1,0.1-0.1,0.2-0.1,0.4
		c0,0.1-0.2,0.2-0.3,0.3c0,0.1,0.2,0.3,0.1,0.4c0,0.1-0.3,0.2-0.3,0.3c0,0.1,0.2,0.3,0.2,0.4c0,0.1-0.1,0.2-0.1,0.4
		c0,0.1,0,0.3,0,0.4c0,0.1-0.3,0.2-0.3,0.3c0,0.1,0,0.3,0,0.4c0,0.1,0,0.3,0,0.4c0,0.1,0,0.3,0,0.4c0,0.1-0.1,0.2-0.2,0.4
		c0,0.1,0.1,0.3,0.1,0.4c0,0.1-0.3,0.3-0.3,0.4c0,0.2,0,0.3,0.2,0.4c0.2,0.1,0.1,0,0.4-0.1c0.1,0,0.2-0.1,0.4-0.2
		c0.1,0,0.2-0.1,0.4-0.1c0.1,0,0.2-0.1,0.4-0.1c0.1,0,0.2-0.2,0.3-0.2c0.1-0.1,0.3,0,0.4-0.1c0.1-0.1,0.3,0,0.4-0.1
		c0.1-0.1,0.1-0.4,0.2-0.4c0.1-0.1,0.3,0,0.4-0.1c0.1-0.1,0.2-0.2,0.3-0.2c0.1-0.1,0.3-0.1,0.4-0.1c0.1-0.1,0.1-0.3,0.2-0.4
		c0.1-0.1,0.2-0.2,0.3-0.3c0.1-0.1,0.2-0.1,0.3-0.2c0.1-0.1,0.2-0.2,0.3-0.3c0.1-0.1,0.3-0.1,0.4-0.2c0.1-0.1,0.1-0.3,0.1-0.4
		c0.1-0.1,0.1-0.2,0.2-0.3c0.1-0.1,0.3-0.1,0.4-0.2c0.1-0.1,0.1-0.2,0.2-0.3c0.1-0.1,0.1-0.2,0.2-0.3c0.1-0.1,0.1-0.3,0.1-0.4
		c0.1-0.1,0.2-0.2,0.2-0.3c0.1-0.1,0.2-0.2,0.2-0.3c0-0.1,0-0.3,0.1-0.4c0-0.1,0.2-0.2,0.3-0.3c0-0.1-0.2-0.3-0.2-0.5
		c0-0.1,0.2-0.2,0.3-0.4c0-0.1,0.1-0.3,0.1-0.4c0-0.1,0-0.3,0-0.4c0-0.1,0.1-0.3,0.1-0.4c0-0.1,0-0.3,0-0.4c0-0.1-0.3-0.3-0.3-0.4
		c0-0.2,0.2-0.3,0.2-0.4c0-0.2-0.1-0.1-0.2-0.2C74.6,39,74.7,39,74.5,39.1L74.5,39.1z M72.5,49.7c-0.1,0-0.2,0-0.4,0
		c-0.1,0-0.2,0.1-0.4,0.1c-0.1,0-0.3-0.1-0.4-0.1c-0.1,0-0.3-0.1-0.4,0c-0.1,0-0.2,0.1-0.4,0.1c-0.1,0-0.2,0.1-0.4,0.1
		c-0.1,0-0.2,0-0.4,0.1c-0.1,0-0.3,0-0.4,0c-0.1,0-0.3,0-0.4,0.1c-0.1,0-0.2,0.1-0.4,0.1c-0.1,0-0.3,0-0.4,0.1c-0.1,0-0.3-0.1-0.4,0
		c-0.1,0-0.2,0.2-0.3,0.3c-0.1,0-0.2,0.2-0.3,0.3c-0.1,0.1-0.3-0.1-0.4,0c-0.1,0.1-0.2,0.1-0.3,0.2s0,0.4-0.1,0.5
		c-0.1,0.1-0.3,0-0.4,0.1c-0.1,0.1-0.3,0-0.4,0.1c-0.1,0.1,0,0.3-0.1,0.4c-0.1,0.1-0.1,0.2-0.2,0.3c-0.1,0.1-0.2,0.1-0.3,0.2
		c-0.1,0.1-0.3,0.1-0.3,0.2c-0.1,0.1,0,0.3,0,0.4c-0.1,0.1-0.1,0.2-0.2,0.3c-0.1,0.1-0.3,0.1-0.3,0.2c-0.1,0.1,0,0.3,0,0.4
		c-0.1,0.1-0.2,0.2-0.3,0.3c-0.1,0.1-0.2,0.2-0.2,0.3c-0.1,0.1-0.1,0.2-0.2,0.3c-0.1,0.1,0,0.3,0,0.4C63.1,55.8,63,55.9,63,56
		c-0.1,0.1-0.1,0.2-0.2,0.3c-0.1,0.1-0.1,0.2-0.2,0.3c-0.1,0.2-0.1,0.2,0,0.4c0.1,0.2,0.1,0.1,0.3,0.1c0.1,0,0.2,0.1,0.4,0
		c0.1,0,0.2-0.3,0.4-0.3c0.1,0,0.3,0.2,0.4,0.2c0.1,0,0.3,0,0.4,0c0.1,0,0.2-0.2,0.4-0.2c0.1,0,0.3,0.1,0.4,0c0.1,0,0.2-0.1,0.4-0.1
		c0.1,0,0.2-0.1,0.4-0.1c0.1,0,0.2-0.1,0.4-0.2c0.1,0,0.3,0.1,0.4,0c0.1,0,0.3,0,0.4-0.1c0.1,0,0.2-0.2,0.3-0.2c0.1,0,0.3,0,0.4,0
		c0.1-0.1,0.3,0,0.4-0.1c0.1-0.1,0.2-0.2,0.3-0.3c0.1-0.1,0.2-0.2,0.3-0.3c0.1-0.1,0.2-0.1,0.4-0.1c0.1-0.1,0.3-0.1,0.4-0.2
		c0.1-0.1,0.2-0.2,0.3-0.3c0.1-0.1,0.3-0.1,0.4-0.2c0.1-0.1,0.3-0.1,0.4-0.2c0.1-0.1-0.1-0.4,0-0.5c0.1-0.1,0.3-0.1,0.3-0.2
		c0.1-0.1,0.2-0.2,0.3-0.3c0.1-0.1-0.1-0.4,0-0.5c0.1-0.1,0.2-0.2,0.2-0.3c0.1-0.1,0.3-0.1,0.4-0.2c0.1-0.1,0.1-0.3,0.1-0.4
		c0.1-0.1,0.1-0.3,0.1-0.4c0.1-0.1,0.2-0.2,0.3-0.3c0.1-0.1-0.1-0.3,0-0.4c0-0.1-0.1-0.3,0-0.4c0-0.1,0.4-0.2,0.4-0.3
		c0.1-0.2,0.2-0.4,0.1-0.5C72.9,49.5,72.7,49.7,72.5,49.7L72.5,49.7z M67.3,59.3c-0.1,0-0.3,0-0.4,0c-0.1,0-0.2-0.3-0.3-0.3
		c-0.1,0-0.3,0.3-0.5,0.2c-0.1,0-0.2-0.2-0.3-0.2c-0.1,0-0.2-0.3-0.3-0.3c-0.1,0-0.3,0-0.4,0c-0.1,0-0.2-0.1-0.4-0.1
		c-0.1,0-0.3,0.1-0.4,0.1c-0.1,0-0.2-0.3-0.4-0.3c-0.1,0-0.3,0.1-0.4,0.1s-0.3,0.1-0.4,0.1c-0.1,0-0.3,0-0.4,0
		c-0.1,0-0.3-0.1-0.4-0.1c-0.1,0-0.3,0.1-0.4,0.1c-0.1,0-0.3,0-0.4,0c-0.1,0-0.2,0.1-0.4,0.2c-0.1,0-0.3,0-0.4,0
		c-0.1,0-0.2,0.3-0.3,0.3c-0.1,0-0.3,0-0.4,0.1c-0.1,0.1-0.3-0.1-0.4,0c-0.1,0.1-0.1,0.3-0.2,0.3c-0.1,0.1-0.2,0.2-0.3,0.3
		C59.1,59.9,59,60,58.9,60c-0.1,0.1-0.2,0.1-0.3,0.2c-0.1,0.1-0.1,0.3-0.2,0.4c-0.1,0.1-0.2,0.2-0.3,0.3c-0.1,0.1-0.2,0.2-0.3,0.3
		c-0.1,0.1-0.3,0.1-0.3,0.2c-0.1,0.1-0.2,0.2-0.3,0.3c-0.1,0.1-0.2,0.2-0.3,0.2c-0.1,0.1-0.1,0.2-0.2,0.3c-0.1,0.1-0.2,0.2-0.3,0.3
		c-0.1,0.1-0.1,0.2-0.2,0.3c-0.1,0.1-0.2,0.2-0.3,0.2c-0.2,0.2-0.2,0.1-0.2,0.3c0,0.2,0.1,0,0.3,0.1c0.1,0,0.2,0,0.4,0
		c0.1,0,0.3,0,0.4,0c0.1,0,0.2,0.3,0.3,0.4c0.1,0,0.3-0.1,0.4-0.1c0.1,0,0.2,0.2,0.4,0.2c0.1,0,0.3,0,0.4,0c0.1,0,0.3,0,0.4,0
		c0.1,0,0.3,0.1,0.4,0.1c0.1,0,0.3-0.1,0.4-0.1c0.1,0,0.3-0.1,0.4-0.1c0.1,0,0.3,0.1,0.4,0.1c0.1,0,0.3,0,0.4,0c0.1,0,0.3,0,0.4-0.1
		c0.1,0,0.3,0,0.4-0.1c0.1,0,0.2-0.1,0.4-0.1c0.1,0,0.3,0.1,0.4,0.1c0.1,0,0.3,0,0.4,0c0.1,0,0.2-0.2,0.4-0.2c0.1,0,0.3,0,0.4-0.1
		c0.1,0,0.2-0.2,0.3-0.2s0.1-0.3,0.3-0.3c0.1-0.1,0.4,0.1,0.5,0c0.1-0.1,0.2-0.1,0.3-0.2c0.1-0.1,0.2-0.2,0.3-0.3
		c0.1-0.1,0.2-0.2,0.3-0.3c0.1-0.1,0-0.3,0.1-0.4c0.1-0.1,0.2-0.2,0.3-0.3c0.1-0.1,0.3-0.1,0.4-0.2c0.1-0.1,0.1-0.3,0.2-0.4
		c0.1-0.1,0.4,0,0.5-0.1c0.1-0.1,0.2-0.2,0.3-0.3c0.1-0.1-0.1-0.4,0-0.5c0.1-0.1,0.3-0.1,0.4-0.2c0.1-0.2,0.2-0.2,0.1-0.4
		C67.6,59.2,67.6,59.3,67.3,59.3L67.3,59.3z M59.5,66.8c-0.1-0.1-0.2-0.1-0.3-0.2c-0.1-0.1-0.2-0.1-0.4-0.2
		c-0.1-0.1-0.1-0.3-0.2-0.3c-0.1-0.1-0.3,0-0.4-0.1c-0.1-0.1-0.2-0.2-0.3-0.2c-0.1-0.1-0.4,0.2-0.5,0.1c-0.1-0.1-0.1-0.3-0.2-0.4
		c-0.1-0.1-0.2-0.2-0.3-0.2c-0.1-0.1-0.3,0.1-0.4,0c-0.1,0-0.3,0-0.4-0.1c-0.1,0-0.2-0.3-0.3-0.4c-0.1,0-0.3,0.2-0.4,0.2
		c-0.1,0-0.2-0.1-0.4-0.2c-0.1,0-0.3,0-0.4,0c-0.1,0-0.2-0.3-0.4-0.3c-0.1,0-0.3,0-0.4,0c-0.1,0-0.3-0.2-0.4-0.2
		c-0.1,0-0.3,0.2-0.4,0.2c-0.1,0-0.3,0-0.4,0c-0.1,0-0.2,0.1-0.4,0.2c-0.1,0-0.3-0.1-0.4-0.1c-0.1,0-0.1,0.4-0.3,0.4
		c-0.1,0-0.2,0.1-0.3,0.2c-0.1,0-0.2,0.1-0.3,0.2c-0.1,0-0.3,0-0.4,0.1c-0.1,0.1-0.2,0.1-0.4,0.1c-0.1,0.1-0.3,0-0.4,0
		c-0.1,0.1-0.2,0.1-0.3,0.2c-0.1,0.1-0.1,0.3-0.2,0.3c-0.1,0.1-0.2,0.2-0.3,0.2c-0.1,0.1-0.3,0-0.4,0c-0.1,0.1-0.3,0.1-0.4,0.1
		c-0.1,0.1-0.2,0.2-0.3,0.3c-0.1,0.1-0.3,0.1-0.4,0.1c-0.2,0.1-0.3,0.1-0.3,0.3c0,0.2,0.1,0.3,0.3,0.4c0.1,0.1,0.3,0,0.4,0.1
		c0.1,0.1,0.3,0,0.4,0c0.1,0.1,0.2,0.1,0.3,0.2c0.1,0.1,0.2,0.1,0.3,0.2c0.1,0.1,0.2,0.1,0.3,0.2c0.1,0.1,0.1,0.3,0.3,0.4
		c0.1,0.1,0.4-0.3,0.5-0.2c0.1,0,0.1,0.4,0.2,0.5c0.1,0,0.3-0.1,0.4,0c0.1,0,0.3,0,0.4,0.1c0.1,0,0.2,0.2,0.3,0.3
		c0.1,0,0.3,0,0.4,0.1c0.1,0,0.3-0.2,0.4-0.1c0.1,0,0.3,0,0.4,0c0.1,0,0.2,0.3,0.3,0.3c0.1,0,0.3-0.1,0.4-0.1c0.1,0,0.2,0.3,0.4,0.3
		c0.1,0,0.3-0.1,0.4-0.1c0.1,0,0.3-0.1,0.4-0.1c0.1,0,0.3-0.1,0.4-0.1c0.1,0,0.2-0.2,0.4-0.2c0.1,0,0.3,0.3,0.5,0.2
		c0.1,0,0.2-0.1,0.4-0.2c0.1,0,0.2-0.2,0.3-0.3c0.1,0,0.2-0.1,0.3-0.2c0.1-0.1,0.4,0.1,0.5,0.1c0.1-0.1,0.1-0.3,0.3-0.4
		c0.1-0.1,0.3,0,0.4-0.1c0.1-0.1,0.3-0.1,0.4-0.2c0.1-0.1,0.3-0.1,0.4-0.1c0.1-0.1,0.1-0.3,0.3-0.3c0.1-0.1,0.3-0.1,0.4-0.2
		c0.1-0.1,0.2-0.2,0.3-0.2c0.2-0.2,0.4-0.1,0.4-0.3C60,66.9,59.7,67,59.5,66.8L59.5,66.8z M45.7,69.6c-0.1-0.1-0.2-0.2-0.3-0.3
		c-0.1-0.1-0.1-0.3-0.3-0.3c-0.1-0.1-0.2-0.1-0.4-0.2c-0.1-0.1-0.3,0-0.4-0.1c-0.1-0.1-0.3,0-0.4,0c-0.1-0.1-0.2-0.2-0.3-0.2
		c-0.1-0.1-0.2-0.1-0.4-0.1c-0.1,0-0.2-0.1-0.4-0.2c-0.1,0-0.2-0.3-0.3-0.3c-0.1,0-0.3,0-0.4-0.1c-0.1,0-0.3,0.1-0.4,0.1
		c-0.1,0-0.2-0.2-0.4-0.2c-0.1,0-0.3,0.1-0.4,0.1c-0.1,0-0.3-0.1-0.4-0.1c-0.1,0-0.3,0-0.4,0c-0.1,0-0.3,0.2-0.4,0.2
		c-0.1,0-0.3-0.1-0.4-0.1c-0.1,0-0.3-0.1-0.4-0.1c-0.1,0-0.2,0.2-0.4,0.3c-0.1,0-0.2,0.1-0.4,0.1c-0.1,0-0.2,0.1-0.4,0.1
		c-0.1,0-0.3,0-0.4,0c-0.1,0-0.2,0.2-0.3,0.2c-0.1,0-0.3,0-0.4,0.1c-0.1,0.1-0.2,0.3-0.3,0.3c-0.1,0.1-0.3,0.1-0.4,0.1
		c-0.1,0.1-0.3,0-0.4,0c-0.1,0.1-0.1,0.3-0.2,0.4c-0.1,0.1-0.3,0-0.4,0.1c-0.1,0.1-0.2,0.2-0.3,0.3c-0.2,0.1-0.2,0-0.2,0.2
		c0,0.2,0,0.1,0.2,0.3c0.1,0.1,0.2,0.1,0.4,0.1c0.1,0.1,0.1,0.3,0.2,0.3c0.1,0.1,0.3,0,0.4,0c0.1,0.1,0.1,0.3,0.3,0.3
		c0.1,0.1,0.3-0.1,0.4,0c0.1,0.1,0.2,0.2,0.3,0.3c0.1,0.1,0.3,0,0.4,0.1c0.1,0,0.2,0.2,0.3,0.2c0.1,0,0.3,0,0.4,0.1
		c0.1,0,0.2,0.1,0.4,0.1c0.1,0,0.3-0.1,0.4,0c0.1,0,0.2,0.3,0.3,0.4c0.1,0,0.3,0,0.4,0c0.1,0,0.3-0.1,0.4-0.1c0.1,0,0.3,0,0.4,0
		c0.1,0,0.3,0,0.4,0c0.1,0,0.3,0,0.4,0c0.1,0,0.3,0,0.4-0.1c0.1,0,0.3,0.1,0.4,0c0.1,0,0.2-0.2,0.4-0.2c0.1,0,0.2-0.1,0.4-0.1
		c0.1,0,0.3-0.1,0.4-0.1c0.1,0,0.2-0.2,0.3-0.3c0.1,0,0.3,0.1,0.5,0.1c0.1-0.1,0.3,0.1,0.5,0c0.1-0.1,0.1-0.4,0.2-0.4
		c0.1-0.1,0.1-0.3,0.2-0.4c0.1-0.1,0.4,0.1,0.5,0.1c0.1-0.1,0.3-0.1,0.4-0.2c0.1-0.1,0.2-0.2,0.3-0.3c0.2-0.1,0.1-0.1,0.1-0.3
		C45.9,69.6,45.9,69.7,45.7,69.6L45.7,69.6z M33.7,47.6c0,0.1,0.1,0.2,0.1,0.3c0,0.1,0,0.2,0.1,0.3c0,0.1,0.2,0.1,0.2,0.2
		c0,0.2-0.1,0.2-0.1,0.3c0,0.1-0.2,0.2-0.2,0.3c0,0.2,0.3,0.2,0.3,0.3c0,0.1-0.3,0.2-0.3,0.3c0,0.1,0.1,0.2,0,0.3
		c0,0.1,0.1,0.2,0.2,0.3c0.1,0.1,0.2,0.2,0.3,0.2c0.1,0,0.2-0.2,0.3-0.2c0.2,0,0.3,0.3,0.4,0.3c0.1,0,0.2-0.3,0.3-0.3s0.3-0.1,0.4,0
		c0.1,0,0.1,0.4,0.3,0.4s0.3,0,0.4,0c0.1,0,0.1-0.3,0.3-0.3c0.2,0,0.3,0.1,0.4,0.1c0.1,0,0.2,0.1,0.3,0.1c0.2,0,0.3,0,0.4,0
		c0.1,0,0.2-0.3,0.3-0.3c0.2,0,0.3,0.2,0.3,0.2c0.1,0,0.2,0.1,0.4,0.1s0.3-0.3,0.3-0.3c0.1,0,0.2,0.1,0.3,0.1s0.3,0,0.3,0
		c0.1,0,0.2,0.2,0.3,0.2c0.2,0,0.3-0.1,0.3-0.1c0.1,0,0.2,0,0.3,0s0.2-0.3,0.3-0.3c0.1,0,0.2,0.2,0.4,0.2s0.3-0.1,0.4-0.1
		c0.1,0,0.2,0.1,0.3,0.1s0.3-0.1,0.4-0.1c0.1,0,0.1,0.2,0.3,0.2c0.2,0,0.3,0,0.4,0c0.1,0,0.2-0.2,0.3-0.2c0.2,0,0.2,0.3,0.3,0.3
		c0.1,0,0.2,0,0.4,0c0.2,0,0.3,0.1,0.4,0c0.1,0,0.1,0,0.3,0s0.3-0.2,0.3-0.2c0.1,0,0.2,0.1,0.3,0.1c0.2,0,0.2,0.1,0.3,0.1
		c0.1,0,0.1-0.1,0.3-0.3c0.1-0.1,0.4-0.1,0.3-0.2c0-0.1-0.2-0.1-0.2-0.3c0-0.2,0-0.2-0.1-0.3c0-0.1-0.1-0.2-0.1-0.3
		c0-0.2,0.2-0.2,0.2-0.3c0-0.1-0.2-0.2-0.2-0.3s0.2-0.2,0.3-0.3s0-0.2,0-0.3c0-0.1,0.1-0.2,0.1-0.3c0-0.1-0.2-0.1-0.3-0.2
		c-0.1-0.1-0.1-0.4-0.2-0.3c-0.1,0-0.2,0-0.3,0c-0.2,0-0.2,0.3-0.3,0.3c-0.1,0-0.2-0.1-0.4-0.1s-0.3,0.1-0.4,0.1c-0.1,0-0.1,0-0.3,0
		s-0.2-0.1-0.3-0.1c-0.1,0-0.2,0-0.3,0c-0.1,0-0.3,0-0.3,0c-0.1,0-0.1,0.1-0.3,0c-0.1-0.1-0.2-0.3-0.2-0.4c0-0.1,0.1-0.1,0.1-0.3
		c0-0.2,0-0.2,0-0.3c0-0.1,0.2-0.2,0.2-0.4s-0.3-0.3-0.3-0.4c0-0.1,0.3-0.1,0.3-0.3c0-0.2-0.2-0.3-0.2-0.4c0-0.1,0.3-0.1,0.3-0.3
		s-0.1-0.3-0.1-0.4c0-0.1-0.2-0.1-0.2-0.3s0.2-0.2,0.2-0.3c0-0.1,0.1-0.2,0.1-0.3s-0.3-0.3-0.3-0.4c0-0.1,0-0.1,0-0.3
		s0.1-0.2,0.1-0.3c0-0.1-0.1-0.2-0.1-0.4c0-0.2,0-0.2,0-0.3c0-0.1,0.2-0.2,0.2-0.3s-0.2-0.3-0.2-0.4c0-0.1,0.3-0.1,0.3-0.3
		s-0.2-0.2-0.3-0.3c0-0.1,0.1-0.2,0.1-0.4s-0.2-0.3-0.2-0.3c0-0.1,0.1-0.2,0.1-0.3s-0.1-0.3-0.1-0.3c0-0.1,0.2-0.2,0.2-0.3
		c0-0.1,0-0.2,0-0.4c0-0.1-0.3-0.1-0.3-0.3c0-0.2,0.2-0.2,0.2-0.3c0-0.1-0.3-0.2-0.3-0.3s0.2-0.3,0.2-0.3c0-0.1,0.1-0.2,0.1-0.3
		c0-0.2-0.1-0.2-0.1-0.3c0-0.1,0-0.2,0-0.3c0-0.2-0.1-0.2-0.1-0.3s0-0.2,0-0.3c0-0.2,0-0.3,0-0.3c0-0.1,0.1-0.2,0.1-0.3s0-0.2,0-0.3
		c0-0.1,0.1-0.2,0.1-0.4c0-0.2-0.2-0.2-0.3-0.3c0-0.1-0.2-0.2-0.2-0.3c0-0.2,0.3-0.2,0.3-0.3c0-0.1,0.1-0.2,0.1-0.4
		c0-0.2-0.3-0.2-0.4-0.3c-0.1-0.1,0-0.3,0.1-0.4c0.1-0.1,0.2,0,0.3,0c0.1,0,0.2,0,0.3,0c0.1,0,0.2,0.1,0.4,0.1
		c0.1,0,0.2,0.1,0.3,0.1c0.1,0,0.3-0.3,0.4-0.3c0.1,0,0.1,0.4,0.3,0.4c0.1,0,0.1,0.1,0.2,0.2c0.1,0.1,0.3,0,0.4,0.1
		c0.1,0.1,0.3,0,0.4,0.1c0.1,0.1,0.2,0.2,0.3,0.3c0.1,0.1,0,0.3,0,0.4c0.1,0.1,0.1,0.2,0.1,0.3c0,0.1,0.3,0.1,0.4,0.2
		c0,0.1,0.1,0.2,0.1,0.3c0,0.1-0.2,0.3-0.2,0.4c0,0.1,0.1,0.2,0.1,0.3c0,0.1,0.1,0.2,0.1,0.3c0,0.1,0.1,0.2,0.1,0.3
		c0,0.1,0.1,0.2,0.1,0.3c0,0.1,0,0.2,0.1,0.3c0,0.1,0.2,0.2,0.2,0.3c0,0.1,0.2,0.2,0.3,0.3c0,0.1-0.1,0.3-0.1,0.4
		c0,0.1-0.2,0.2-0.1,0.4c0,0.1,0.2,0.2,0.2,0.3c0,0.1,0,0.2,0.1,0.4c0.2,0.1,0.3,0.2,0.4,0.2c0.1,0,0.2-0.3,0.4-0.3
		c0.2,0,0.3,0,0.4,0s0.2,0.1,0.4,0.1s0.3,0,0.4,0c0.1,0,0.2-0.2,0.4-0.2c0.2,0,0.3,0.1,0.4,0.2c0.1,0.1,0.1,0,0.2-0.2
		c0.1-0.1,0.3-0.1,0.3-0.2c0-0.1,0-0.1,0-0.3c0-0.2-0.1-0.2,0-0.3c0-0.1,0.1-0.2,0.1-0.4c0-0.2-0.2-0.3-0.2-0.3c0-0.1,0-0.2,0-0.3
		c0-0.2,0.1-0.3,0.1-0.3c0-0.1-0.1-0.2-0.1-0.3s0.1-0.2,0.1-0.3c0-0.1,0.2-0.2,0.2-0.4c0-0.2-0.1-0.3-0.2-0.4s-0.3-0.1-0.3-0.3
		c0-0.2,0.1-0.2,0.2-0.3c0-0.1,0.1-0.2,0.1-0.4c0-0.2-0.2-0.3-0.2-0.4c0-0.1,0.1-0.1,0.1-0.3c0-0.2-0.1-0.2-0.1-0.3
		c0-0.1,0.1-0.2,0.1-0.4c0-0.2,0-0.3,0-0.4c0-0.1-0.3-0.2-0.3-0.3s0.1-0.3,0.1-0.4c0-0.1,0.2-0.1,0.2-0.3c0-0.2-0.1-0.2-0.1-0.3
		c0-0.1,0.1-0.2,0.1-0.4c0-0.2,0-0.3,0-0.4c0.1-0.1,0.2-0.2,0.1-0.4c-0.1-0.1-0.3-0.3-0.4-0.3c-0.1,0-0.2,0.3-0.3,0.3
		c-0.2,0-0.3,0-0.3,0c-0.1,0-0.2-0.2-0.3-0.2c-0.2,0-0.3,0.2-0.3,0.2c-0.1,0-0.2,0.1-0.3,0.1s-0.3-0.2-0.4-0.1
		c-0.1,0-0.1,0.2-0.3,0.2c-0.1,0-0.2,0-0.4-0.1c-0.1,0-0.1-0.3-0.3-0.3c-0.2,0-0.2,0.2-0.3,0.2c-0.1,0-0.2,0-0.3,0
		c-0.1,0-0.2,0-0.3,0.1c-0.1,0-0.2-0.1-0.3-0.1c-0.2,0-0.3,0.2-0.3,0.2c-0.1,0-0.2,0.1-0.3,0.1s-0.3-0.1-0.3-0.1
		c-0.1,0-0.2-0.1-0.3-0.1s-0.2,0.2-0.3,0.2s-0.2-0.3-0.3-0.3c-0.2,0-0.3,0.3-0.3,0.3c-0.1,0-0.2,0-0.3,0c-0.2,0-0.3-0.3-0.4-0.3
		c-0.1,0-0.1,0.3-0.3,0.3c-0.2,0-0.2-0.2-0.3-0.2c-0.1,0-0.2,0.2-0.4,0.2S42,28.9,42,29c-0.1,0-0.1,0.2-0.3,0.2
		c-0.2,0-0.2,0.3-0.3,0.3c-0.1,0-0.2,0-0.4,0c-0.1,0-0.3,0-0.4-0.1c-0.1,0-0.1-0.3-0.3-0.3s-0.2,0.2-0.3,0.2c-0.1,0-0.2,0-0.3,0
		S39.4,29,39.3,29c-0.1,0-0.2,0.2-0.4,0.2s-0.3-0.1-0.3-0.1c-0.1,0-0.2,0.1-0.3,0.1S38,29,37.9,29c-0.1,0-0.1,0.3-0.3,0.3
		s-0.2-0.1-0.3-0.1c-0.1,0-0.2-0.1-0.3-0.1c-0.2,0-0.3,0-0.4,0c-0.1,0-0.1,0.1-0.3,0.1s-0.3,0.2-0.4,0.2c-0.1,0-0.1-0.5-0.3-0.5
		s-0.3,0.2-0.4,0.2c-0.1,0-0.1,0.1-0.3,0.1s-0.3,0.2-0.4,0.2c-0.1,0-0.1-0.4-0.3-0.4S34,29.2,34,29.2c-0.1,0-0.2,0.2-0.3,0.2
		c-0.2,0-0.2,0-0.3,0c-0.1,0-0.2-0.3-0.4-0.3c-0.2,0-0.2,0-0.3,0c-0.1,0-0.2,0.1-0.4,0.1s-0.3-0.1-0.4-0.1c-0.1,0-0.1,0-0.3,0
		s-0.2,0.1-0.3,0.1c-0.1,0-0.2-0.1-0.3-0.1s-0.2,0.2-0.3,0.2c-0.1,0-0.2,0-0.3,0c-0.2,0-0.3,0.1-0.4,0.1c-0.1,0-0.1-0.2-0.2-0.1
		c-0.1,0.1,0,0.2,0,0.3c0,0.1,0,0.2,0,0.3c0,0.2,0,0.2,0,0.3c0,0.1,0.1,0.2,0.1,0.4c0,0.2-0.1,0.3-0.1,0.4c0,0.1-0.1,0.1-0.1,0.3
		c0,0.2,0.1,0.2,0.1,0.3s0,0.2,0,0.4c0,0.2,0,0.2,0,0.3c0,0.1-0.2,0.2-0.2,0.4c0,0.2-0.1,0.3,0,0.4c0,0.1,0.3,0.1,0.3,0.3
		c0,0.2-0.2,0.2-0.3,0.3s0,0.2,0,0.4c0,0.2,0.2,0.2,0.2,0.3c0,0.1-0.2,0.2-0.2,0.4c0,0.2,0.1,0.3,0.1,0.3c0,0.1,0.2,0.2,0.2,0.3
		s-0.4,0.2-0.4,0.3c0,0.1,0,0.2,0,0.4s0.1,0.3,0.1,0.3c0,0.1,0.2,0.2,0.2,0.3c0,0.2-0.2,0.3-0.2,0.4c0,0.1,0,0.1,0,0.3
		c0,0.2,0.1,0.2,0,0.3c-0.1,0.1,0,0.1,0.2,0.2c0.1,0.1,0.1,0.1,0.2,0c0.1,0,0.3,0.2,0.4,0.2c0.2,0,0.3,0,0.4,0
		c0.1,0,0.2-0.1,0.4-0.1c0.2,0,0.3,0,0.4,0c0.1,0,0.2,0,0.3,0c0.2,0,0.3-0.2,0.4-0.2c0.1,0,0.1-0.1,0.2-0.2c0-0.1,0.2-0.1,0.2-0.2
		c0-0.1,0-0.2,0.1-0.3c0-0.1-0.1-0.3,0-0.4c0.1-0.1,0.3-0.2,0.3-0.3c0-0.1-0.2-0.3-0.2-0.4c0-0.1-0.1-0.3-0.1-0.4
		c0-0.1,0.2-0.2,0.3-0.3c0-0.1,0.2-0.2,0.2-0.3c0-0.1,0-0.2,0.1-0.3c0-0.1-0.2-0.3-0.2-0.4c0-0.1,0-0.2,0.1-0.3
		c0-0.1,0.4-0.1,0.5-0.2c0-0.1-0.1-0.3,0-0.4c0.1-0.1,0-0.2,0.1-0.3c0.1-0.1,0.1-0.2,0.2-0.3c0.1-0.1,0.2-0.1,0.3-0.2
		c0.1-0.1,0.2-0.1,0.3-0.3c0.1-0.1-0.1-0.4,0-0.5c0.1-0.1,0.3,0.1,0.5,0c0.1-0.1,0.1-0.3,0.3-0.3c0.1,0,0.3,0.1,0.4,0.1
		c0.1,0,0.2,0,0.4,0c0.1,0,0.2,0,0.4,0c0.1,0,0.2-0.2,0.3-0.2c0.1,0,0.3,0.2,0.4,0.2c0.1,0,0.3-0.3,0.4-0.1c0.1,0.1-0.2,0.3-0.3,0.4
		c-0.1,0.1,0,0.3,0,0.4c0,0.2,0.3,0.2,0.3,0.2c0,0.1,0.1,0.3,0.1,0.4s-0.3,0.2-0.3,0.3c0,0.1,0.1,0.2,0.1,0.3c0,0.2,0,0.3,0,0.3
		s-0.3,0.2-0.3,0.3s0.3,0.3,0.3,0.4c0,0.1,0,0.2,0,0.3c0,0.2-0.1,0.2-0.1,0.3c0,0.1,0,0.2,0,0.3c0,0.2-0.1,0.2-0.1,0.3
		c0,0.1,0.3,0.2,0.3,0.4s-0.3,0.2-0.3,0.3c0,0.1,0,0.2,0,0.3c0,0.2-0.1,0.3,0,0.4c0,0.1,0.3,0.1,0.3,0.2s0.1,0.3,0.1,0.4
		c0,0.1-0.1,0.1-0.1,0.3c0,0.2,0.1,0.2,0.1,0.3c0,0.1-0.3,0.2-0.3,0.3c0,0.2-0.1,0.2-0.1,0.3c0,0.1,0.2,0.2,0.2,0.4
		c0,0.2-0.2,0.3-0.1,0.3c0,0.1,0.1,0.2,0.1,0.3s-0.2,0.2-0.2,0.3s0,0.2,0,0.4c0,0.2,0.1,0.3,0.1,0.3c0,0.1-0.2,0.2-0.2,0.3
		c0,0.2,0,0.3,0,0.4c0,0.1,0.3,0.1,0.3,0.3c0,0.2-0.3,0.3-0.3,0.3c0,0.1,0,0.2,0,0.3s0.3,0.3,0.3,0.3c0,0.1-0.4,0.2-0.4,0.3
		s0.2,0.3,0.2,0.3c0,0.1,0.1,0.2,0.1,0.3s-0.2,0.3-0.1,0.4c0,0.1,0.3,0.1,0.3,0.3c0,0.2,0,0.3,0,0.4s-0.1,0.1-0.1,0.3
		c0,0.2,0,0.2,0,0.3c0,0.1-0.2,0.2-0.2,0.3c0,0.2,0.2,0.2,0.3,0.3c0,0.1-0.2,0.1-0.3,0.2c-0.1,0.1-0.1,0.2-0.2,0.1
		c-0.1,0-0.2,0-0.3,0c-0.2,0-0.2-0.1-0.3-0.1c-0.1,0-0.2,0.2-0.3,0.2c-0.2,0-0.2-0.2-0.3-0.2c-0.1,0-0.2-0.2-0.3-0.2
		c-0.2,0-0.2,0.2-0.3,0.2c-0.1,0-0.2,0.1-0.3,0.1c-0.1,0-0.2-0.3-0.3-0.3c-0.1,0-0.2,0.2-0.3,0.3C34,47.5,33.7,47.5,33.7,47.6
		L33.7,47.6z M38.6,57.2c0.2,0,0.4,0,0.6,0.1l0,0c0.4-0.1,0.8-0.2,1.2-0.1c0.2,0,0.4-0.1,0.6,0c0.2-0.1,0.4-0.1,0.6-0.1l0.1,0
		c0.2,0,0.4,0,0.6,0.1c0.2-0.1,0.5-0.1,0.8-0.1c0.2,0,0.4,0,0.6,0.1c0.1,0,0.1,0,0.2,0c0.2-0.1,0.5-0.2,0.7-0.2
		c0.3-0.2,0.5-0.3,0.7-0.3l0,0c0.2-0.1,0.5-0.2,0.9-0.2c0.1,0,0.1,0,0.2,0c0.2-0.2,0.4-0.3,0.7-0.4l0.3-0.1l0.2,0
		c0.2-0.1,0.3-0.1,0.5-0.2c0.3-0.2,0.6-0.3,0.9-0.3c0.2-0.1,0.3-0.2,0.5-0.2c0.2-0.3,0.5-0.6,0.7-0.7c0.1-0.1,0.2-0.2,0.4-0.3
		c0.3-0.2,0.6-0.3,0.9-0.3c0.1-0.1,0.3-0.1,0.4-0.2c0.1-0.1,0.2-0.2,0.3-0.2c0.1-0.2,0.2-0.3,0.4-0.4c0.1-0.1,0.2-0.1,0.2-0.2
		c0.2-0.2,0.4-0.3,0.6-0.3c0.2-0.3,0.5-0.6,0.8-0.8c0.2-0.4,0.5-0.8,0.9-1c0.1-0.1,0.3-0.3,0.5-0.4c0,0,0-0.1,0.1-0.1l0,0
		c0-0.4,0.1-0.8,0.4-1.1c0.2-0.2,0.3-0.4,0.5-0.5c0-0.3,0.1-0.5,0.3-0.8c0.1-0.2,0.3-0.4,0.5-0.5c0.1-0.2,0.2-0.4,0.4-0.6
		c0-0.4,0.2-0.8,0.3-1c0.1-0.2,0.1-0.4,0.3-0.7l0,0c0-0.2,0-0.4,0-0.5c0-0.2,0.1-0.5,0.3-0.7c0-0.1,0-0.1,0-0.2
		c-0.1-0.3,0-0.5,0-0.8c0-0.2,0.1-0.3,0.1-0.4c-0.1-0.3-0.1-0.6,0-0.8c0-0.1,0.1-0.3,0.2-0.5l0-0.1c0-0.4,0.2-0.7,0.5-1
		c-0.1-0.4,0-0.8,0.1-1.1c-0.2-0.4-0.3-0.9-0.2-1.4c0-0.1,0-0.2,0-0.3c-0.1-0.4-0.1-0.8,0-1.3c-0.3-0.3-0.5-0.6-0.5-1l0,0
		c0-0.2-0.1-0.5-0.1-0.8c0-0.1,0-0.3,0.1-0.4c0,0,0-0.1,0-0.1c-0.1-0.2-0.1-0.3-0.1-0.5c-0.1-0.1-0.2-0.3-0.2-0.5
		C58.1,32.4,58,32.2,58,32c0-0.1-0.1-0.2-0.1-0.3c-0.2-0.2-0.4-0.4-0.5-0.7c-0.2-0.2-0.4-0.4-0.5-0.6c-0.2-0.4-0.3-0.9-0.1-1.3
		c-0.1-0.1-0.1-0.1-0.2-0.2c-0.2-0.1-0.3-0.3-0.4-0.4c-0.5-0.2-0.9-0.6-1.1-1.2c-0.2-0.1-0.4-0.3-0.5-0.4c-0.2-0.3-0.4-0.7-0.4-1
		c-0.1-0.1-0.2-0.2-0.2-0.3c-0.4-0.1-0.7-0.2-1-0.5c-0.2-0.1-0.4-0.4-0.6-1c-0.2-0.2-0.4-0.4-0.5-0.7c-0.2-0.1-0.4-0.2-0.6-0.3
		c-0.2-0.1-0.4-0.1-0.5-0.2c-0.2-0.1-0.4-0.3-0.5-0.5c-0.1,0-0.2,0-0.3,0h-0.5l-0.4-0.2c-0.2-0.1-0.4-0.3-0.6-0.5
		c-0.2-0.1-0.3-0.2-0.4-0.3c-0.3-0.1-0.6-0.3-0.8-0.5c-0.3,0-0.6,0-0.9-0.1c-0.3-0.1-0.6-0.3-0.8-0.5c-0.1,0-0.2-0.1-0.4-0.1
		c-0.3,0-0.6,0-0.9-0.2c0,0-0.1,0-0.1,0c-0.2,0.1-0.3,0.1-0.6,0.1l0,0c-0.2,0-0.4,0.1-0.5,0.1c-0.4,0-0.8-0.1-1.2-0.4
		c-0.1,0-0.2,0-0.3,0l0,0c-0.3,0-0.5,0-0.8-0.1c-0.2,0.1-0.4,0.1-0.6,0.1c-0.4,0-0.7-0.1-0.9-0.2l0,0l-0.1,0l-0.1,0c0,0-0.1,0-0.1,0
		c-0.1,0-0.2,0.1-0.2,0.1c-0.3,0.3-0.6,0.4-0.9,0.5c-0.4,0.1-0.7,0-1-0.1l-0.1,0h-0.1c-0.4,0.3-0.8,0.4-1.2,0.4c-0.1,0-0.3,0-0.4,0
		c-0.2,0.2-0.7,0.6-1.3,0.7c-0.2,0-0.3,0.1-0.5,0.1c-0.3,0.3-0.7,0.5-1.1,0.5c-0.2,0.3-0.5,0.5-0.8,0.6c-0.1,0.1-0.3,0.3-0.5,0.4
		c-0.2,0.1-0.5,0.2-0.8,0.3c-0.3,0.5-0.8,0.8-1.3,0.9c-0.3,0.4-0.7,0.6-1.2,0.7c0,0.4-0.1,0.8-0.5,1.2c-0.2,0.2-0.5,0.4-0.8,0.5
		c0,0.3-0.1,0.5-0.3,0.7c0,0.1-0.1,0.1-0.1,0.2c-0.2,0.3-0.4,0.5-0.6,0.6c0,0,0,0.1-0.1,0.1c0,0.2-0.1,0.5-0.3,0.7
		c-0.1,0.1-0.2,0.2-0.3,0.3c0,0.1-0.1,0.3-0.2,0.4c0,0.2-0.1,0.5-0.3,0.7c-0.1,0.4-0.2,0.8-0.5,1c0,0.1-0.1,0.1-0.1,0.2
		c0,0.1,0,0.2-0.1,0.2c-0.1,0.3-0.3,0.6-0.5,0.8c-0.1,0.4-0.4,0.8-0.7,1.1c0,0.2,0,0.5,0,0.8c0,0.1-0.1,0.2-0.1,0.4
		c0,0.3,0,0.5-0.1,0.8c0.1,0.3,0.1,0.5,0,0.7c0,0.2-0.1,0.4-0.1,0.5c0.1,0.3,0.1,0.6,0.1,0.7c0,0.3-0.1,0.5-0.2,0.7
		c0.1,0.3,0.1,0.6,0,0.9c0,0.3,0,0.6-0.1,0.9c0.4,0.4,0.5,0.8,0.6,1.1c0,0.2,0.1,0.7-0.3,1.3l0,0c0,0.2,0.1,0.5,0,0.8
		c0.1,0.1,0.3,0.4,0.4,0.7c0.1,0.1,0.1,0.2,0.2,0.3c0.4,0.2,0.6,0.5,0.8,0.9c0.1,0.3,0.2,0.8,0,1.4c0,0.1,0.1,0.2,0.1,0.3
		c0.3,0.2,0.5,0.4,0.6,0.6l0,0c0.1,0.1,0.1,0.2,0.2,0.4c0,0,0.1,0.1,0.1,0.1c0.1,0.1,0.3,0.3,0.5,0.5c0.2,0.3,0.3,0.5,0.3,0.8l0,0
		c0.1,0.1,0.3,0.2,0.4,0.4c0.2,0.2,0.3,0.5,0.3,0.8c0.2,0.1,0.3,0.3,0.5,0.5c0.2,0.1,0.4,0.3,0.5,0.4c0.1,0.1,0.3,0.4,0.5,0.7
		c0,0.1,0.1,0.2,0.1,0.3c0.2,0.1,0.4,0.2,0.5,0.3c0.3,0.1,0.5,0.2,0.7,0.4c0.2,0,0.4,0.1,0.6,0.2c0.1,0,0.3,0.1,0.4,0.2
		c0.3,0.2,0.5,0.5,0.6,0.7c0,0,0.1,0.1,0.1,0.1c0.3,0,0.5,0.1,0.7,0.2c0.3,0.2,0.5,0.4,0.7,0.6c0.2,0.1,0.5,0.3,0.7,0.5
		c0.1,0.1,0.2,0.1,0.2,0.2c0.1,0,0.2,0.1,0.2,0.1c0,0,0.1,0,0.1,0c0.3-0.1,0.7-0.1,1,0c0.2,0.1,0.5,0.2,0.7,0.4
		c0.2,0,0.5,0.1,0.7,0.3c0.2,0,0.5,0,0.7,0.1c0.3-0.1,0.7,0,1,0.1c0.1,0,0.2,0,0.3,0h0.1l0.1,0c0.2,0,0.5,0.1,0.7,0.2l0.1,0
		L38.6,57.2L38.6,57.2z M41.5,61.5c-0.3,0-0.5,0-0.6-0.1c-0.3,0-0.6-0.1-0.8-0.3c-0.3,0.2-0.7,0.3-1.1,0.3l-0.1,0
		c-0.3,0-0.6-0.1-0.8-0.2c-0.1,0-0.3,0-0.4,0h-0.1l-0.1,0c-0.2,0-0.4-0.1-0.5-0.2c-0.1,0-0.1,0-0.2,0h-0.1l-0.1,0
		c-0.4,0-0.7-0.2-1-0.4c-0.2,0-0.3,0.1-0.5,0.1c-0.1,0-0.2,0-0.4,0c-0.5,0-1.1-0.2-1.4-0.6c-0.1,0-0.3-0.1-0.4-0.2
		c-0.1,0-0.2,0-0.3,0c-0.3,0-0.6,0-0.8-0.2c-0.4-0.2-0.8-0.5-1-0.8c-0.2-0.1-0.3-0.2-0.5-0.4c-0.3-0.1-0.6-0.3-0.9-0.5
		c-0.3,0-0.6-0.2-0.9-0.3c-0.2-0.1-0.4-0.3-0.6-0.6c-0.2-0.1-0.5-0.3-0.6-0.5c-0.5-0.1-1-0.3-1.3-0.8c-0.5-0.1-0.9-0.3-1.2-0.7
		c-0.2-0.3-0.4-0.6-0.4-0.9l0,0c-0.5-0.1-0.9-0.3-1.2-0.6c-0.2-0.2-0.4-0.5-0.4-0.8c-0.2-0.2-0.4-0.5-0.5-0.8
		c-0.1-0.1-0.3-0.2-0.4-0.3c-0.2-0.3-0.5-0.7-0.5-1.2c-0.3-0.2-0.6-0.6-0.7-1c-0.4-0.2-0.6-0.5-0.8-0.8c-0.1-0.2-0.2-0.4-0.2-0.6
		c-0.1-0.2-0.1-0.5-0.1-0.7c0,0,0-0.1,0-0.1l0,0c-0.1-0.2-0.2-0.4-0.2-0.7c-0.1-0.2-0.2-0.5-0.3-0.7c-0.2-0.2-0.3-0.4-0.4-0.7
		c0-0.1-0.1-0.2-0.1-0.4c-0.2-0.2-0.3-0.5-0.4-0.7c-0.2-0.4-0.2-0.9,0-1.4c0-0.1,0-0.1,0-0.2c-0.2-0.4-0.2-0.9-0.1-1.3
		c0-0.2,0-0.4,0-0.5c-0.2-0.3-0.3-0.6-0.3-0.9c0-0.3,0-0.6,0.1-0.8c-0.3-0.6-0.4-1.3,0-1.9c0-0.3,0.1-0.5,0.2-0.8c0,0,0,0,0,0
		c-0.2-0.4-0.3-0.8-0.2-1.3c0.1-0.3,0.2-0.7,0.5-1c0-0.1,0.1-0.2,0.1-0.3c-0.1-0.2-0.1-0.4,0-0.7c0-0.2,0-0.7,0.3-1.1
		c0.1-0.2,0.3-0.5,0.6-0.6c0-0.2,0-0.4,0.1-0.6c0.1-0.4,0.3-0.6,0.6-0.8c0,0,0,0,0,0c-0.2-0.7,0.1-1.5,0.7-1.9c0,0,0-0.1,0-0.1
		c0-0.3,0.1-0.8,0.5-1.2c0.2-0.4,0.5-0.7,0.9-1c0.1-0.2,0.3-0.4,0.5-0.5c0.1-0.3,0.3-0.6,0.6-0.8c0.2-0.3,0.4-0.6,0.6-0.7
		c0.1-0.1,0.2-0.2,0.4-0.3c0-0.1,0.1-0.2,0.1-0.2c0.1-0.3,0.2-0.5,0.4-0.7c0.1-0.3,0.3-0.6,0.6-0.9c0.2-0.1,0.4-0.2,0.5-0.3
		c0.3-0.2,0.6-0.2,0.9-0.2c0.1-0.1,0.2-0.2,0.3-0.3c0.1-0.8,0.8-1.4,1.6-1.5c0.2-0.2,0.4-0.4,0.5-0.5l0.4-0.2l0.5,0c0,0,0.1,0,0.1,0
		l0.1,0c0.3-0.6,1-0.9,1.6-0.9c0.1,0,0.1,0,0.2,0c0.2-0.1,0.3-0.2,0.5-0.3l0.3-0.1l0.3,0h0c0.3-0.2,0.6-0.3,0.8-0.3
		c0.1,0,0.2,0,0.3,0c0.2-0.1,0.4-0.1,0.6-0.1l0,0c0.4-0.3,0.9-0.4,1.3-0.3c0.1,0,0.3-0.1,0.4-0.1c0.3-0.2,0.6-0.3,0.8-0.3l0.2,0
		c0.4-0.3,0.8-0.4,1.1-0.4c0.3,0,0.7,0.1,1,0.3c0.3-0.1,0.6-0.1,0.7-0.1c0.2,0,0.4,0,0.5,0.1c0.3,0,0.5,0.1,0.7,0.2
		c0.2,0.1,0.3,0.1,0.5,0.3c0.1,0,0.3,0,0.4,0c0.3,0,0.7,0.1,1,0.3l0.1,0c0.2-0.1,0.5-0.2,0.9-0.2c0.1,0,0.2,0,0.4,0
		c0.3,0.1,0.5,0.2,0.7,0.3c0.4,0,0.7,0.1,0.8,0.2c0.1,0,0.2,0.1,0.3,0.1l0.1,0c0.4,0,0.7,0.1,1,0.3c0.1,0,0.2,0,0.3,0.1
		c0.3,0,0.7,0,1.1,0.2c0.3,0.1,0.6,0.3,0.9,0.7c0.1,0,0.1,0.1,0.2,0.1c0.2,0,0.3,0.1,0.5,0.1h0l0.2,0c0.1,0,0.4,0.1,0.6,0.2
		c0.3,0,0.6,0.1,0.8,0.3l0,0c0.1,0,0.2,0.1,0.3,0.2c0.3,0.2,0.5,0.4,0.7,0.8c0.7,0,1.3,0.5,1.6,1.1l0,0c0.1,0.1,0.4,0.3,0.5,0.7
		l0.1,0.1c0.1,0,0.2,0.1,0.2,0.1c0.3,0.2,0.8,0.5,1,1.1c0.3,0.1,0.6,0.4,0.8,0.7l0,0c0.1,0.1,0.2,0.2,0.2,0.3c0.3,0.1,0.7,0.3,1,0.7
		c0.4,0.5,0.5,1,0.3,1.6c0.3,0.1,0.5,0.3,0.7,0.5c0.2,0.2,0.4,0.4,0.5,0.7c0.1,0.1,0.2,0.3,0.3,0.5c0.2,0.4,0.2,0.7,0.2,1
		c0.1,0.2,0.2,0.3,0.2,0.5c0.2,0.2,0.3,0.4,0.4,0.6c0,0.1,0.1,0.2,0.1,0.3c0.1,0.3,0.2,0.6,0.1,1c0.2,0.3,0.3,0.5,0.3,0.8
		c0,0,0,0.1,0,0.1l0,0c0,0,0,0.1,0,0.1c0.2,0.2,0.3,0.5,0.3,0.8c0.2,0.4,0.3,0.9,0.1,1.4c0,0,0,0.1,0,0.1c0.2,0.3,0.3,0.7,0.3,0.9
		l0,0.1c0,0.1,0.1,0.4,0.1,0.7c0,0.2,0,0.4-0.1,0.5c0.2,0.4,0.2,0.8,0.2,1l0,0c0.1,0.2,0.1,0.4,0.1,0.5c0,0.1,0.1,0.2,0.1,0.4
		c0.1,0.2,0.1,0.4,0.1,0.7c0,0.2,0,0.4-0.1,0.7c0.1,0.3,0.1,0.6,0.1,0.9c0,0.5-0.3,0.9-0.6,1.2l0,0.1c0,0.5-0.1,0.9-0.2,1.1
		c-0.1,0.3-0.2,0.5-0.4,0.7c0.1,0.4,0,0.7,0,0.9c0.2,0.5,0.1,0.9,0,1.1c-0.2,0.5-0.5,0.8-0.8,1c0,0.2,0,0.4,0,0.6
		c0,0.1,0,0.3-0.1,0.5c0,0.3-0.1,0.5-0.2,0.7c-0.1,0.4-0.3,0.8-0.6,1.1c0,0.3-0.1,0.6-0.3,0.9c-0.2,0.4-0.6,0.7-1.1,0.8
		c0,0.4-0.2,0.7-0.4,0.9c-0.2,0.2-0.4,0.4-0.7,0.6c-0.1,0.1-0.2,0.2-0.3,0.2c0,0,0,0,0,0c-0.1,0.3-0.2,0.6-0.5,0.9
		c-0.2,0.3-0.5,0.4-0.7,0.5l0,0c-0.1,0-0.1,0.1-0.2,0.1c-0.3,0.5-0.7,0.8-1,0.9c-0.1,0.1-0.2,0.1-0.3,0.2c-0.1,0.2-0.3,0.4-0.5,0.5
		c-0.1,0.3-0.3,0.5-0.6,0.8c-0.4,0.3-0.8,0.4-1.2,0.3c-0.2,0.3-0.4,0.6-0.7,0.8c-0.2,0.1-0.4,0.2-0.7,0.2c-0.1,0.1-0.3,0.1-0.5,0.2
		c-0.2,0.2-0.5,0.3-0.8,0.3c-0.2,0.1-0.3,0.2-0.5,0.3c-0.3,0.3-0.6,0.4-1,0.5l-0.2,0h-0.1c0,0-0.1,0-0.1,0.1
		c-0.2,0.3-0.6,0.5-0.9,0.6l-0.3,0.1l-0.3,0c-0.1,0-0.1,0-0.2,0c-0.2,0.1-0.5,0.2-0.7,0.3l-0.2,0l-0.2,0h0c-0.1,0-0.2,0-0.4,0
		c-0.1,0-0.3,0-0.4,0c-0.1,0-0.2,0-0.3,0.1l-0.1,0h-0.2c-0.3,0-0.5,0-0.7-0.1c-0.2,0.1-0.4,0.2-0.6,0.3
		C42.2,61.4,41.8,61.5,41.5,61.5L41.5,61.5z"/>
</g>
</svg>
