<?xml version="1.0" encoding="utf-8"?>
<!-- Generator: Adobe Illustrator 21.1.0, SVG Export Plug-In . SVG Version: 6.00 Build 0)  -->
<svg version="1.1" id="Layer_1" xmlns="http://www.w3.org/2000/svg" xmlns:xlink="http://www.w3.org/1999/xlink" x="0px" y="0px"
	 viewBox="0 0 80 80" style="enable-background:new 0 0 80 80;" xml:space="preserve">
<style type="text/css">
	.st0{fill:#FFFFFF;}
</style>
<title  data-reactid="8">logomark - black</title>
<g>
	<path class="st0" d="M32.3,62.8c19.3,0,29.9-16,29.9-29.9c0-0.5,0-0.9,0-1.4c2.1-1.5,3.8-3.3,5.2-5.4c-1.9,0.8-3.9,1.4-6,1.7
		c2.2-1.3,3.8-3.4,4.6-5.8c-2,1.2-4.3,2.1-6.7,2.5c-1.9-2-4.6-3.3-7.7-3.3c-5.8,0-10.5,4.7-10.5,10.5c0,0.8,0.1,1.6,0.3,2.4
		c-8.7-0.4-16.5-4.6-21.6-11c-0.9,1.6-1.4,3.4-1.4,5.3c0,3.6,1.9,6.9,4.7,8.7c-1.7-0.1-3.3-0.5-4.8-1.3v0.1c0,5.1,3.6,9.3,8.4,10.3
		c-0.9,0.2-1.8,0.4-2.8,0.4c-0.7,0-1.3-0.1-2-0.2c1.3,4.2,5.2,7.2,9.8,7.3c-3.6,2.8-8.1,4.5-13,4.5c-0.8,0-1.7,0-2.5-0.1
		C20.9,61.1,26.4,62.8,32.3,62.8"/>
</g>
</svg>
